<?xml version="1.0" encoding="iso-8859-1"?>
<!-- Generator: Adobe Illustrator 19.0.0, SVG Export Plug-In . SVG Version: 6.00 Build 0)  -->
<svg version="1.1" id="Capa_1" xmlns="http://www.w3.org/2000/svg" xmlns:xlink="http://www.w3.org/1999/xlink" x="0px" y="0px"
	 viewBox="0 0 512 512" style="enable-background:new 0 0 512 512;" xml:space="preserve">
<linearGradient id="SVGID_1_" gradientUnits="userSpaceOnUse" x1="255.8946" y1="514.048" x2="255.8946" y2="2.225" gradientTransform="matrix(1.0003 0 0 -1.0003 0.0169 514.2258)">
	<stop  offset="0" style="stop-color:#2AF598"/>
	<stop  offset="1" style="stop-color:#009EFD"/>
</linearGradient>
<path style="fill:url(#SVGID_1_);" d="M420.499,65.192L420.499,65.192c-48.502-8.692-93.168-35.18-115.476-50.195
	C290.447,5.186,273.496,0,256.001,0s-34.447,5.186-49.022,14.996C184.671,30.011,140.005,56.5,91.503,65.192
	c-28.726,5.148-49.576,30.002-49.576,59.097v120.71c0,39.877,11.157,78.749,33.159,115.539
	c17.214,28.781,41.064,56.288,70.888,81.757c50.147,42.825,99.803,65.157,101.892,66.086L256,512l8.134-3.619
	c2.089-0.929,51.745-23.261,101.892-66.086c29.823-25.469,53.675-52.976,70.888-81.757c22.004-36.789,33.159-75.662,33.159-115.539
	V124.29C470.075,95.194,449.225,70.34,420.499,65.192z M430.061,245c0,59.45-30.033,115.375-89.267,166.224
	c-34.432,29.558-69.39,48.824-84.791,56.643C220.601,449.879,81.941,371.328,81.941,245V124.29c0-9.695,6.99-17.985,16.621-19.711
	c55.718-9.985,105.843-39.616,130.761-56.387c7.947-5.35,17.172-8.178,26.678-8.178s18.731,2.828,26.678,8.177
	c24.919,16.773,75.043,46.402,130.761,56.387l0,0c9.63,1.726,16.621,10.015,16.621,19.711V245z M351.154,156.061l29.769,26.738
	L236.775,343.294l-94.604-90.052l27.589-28.983l64.769,61.653L351.154,156.061z"/>
<g>
</g>
<g>
</g>
<g>
</g>
<g>
</g>
<g>
</g>
<g>
</g>
<g>
</g>
<g>
</g>
<g>
</g>
<g>
</g>
<g>
</g>
<g>
</g>
<g>
</g>
<g>
</g>
<g>
</g>
</svg>
