<?xml version="1.0" encoding="utf-8"?>
<!-- Generator: Adobe Illustrator 16.0.0, SVG Export Plug-In . SVG Version: 6.00 Build 0)  -->
<!DOCTYPE svg PUBLIC "-//W3C//DTD SVG 1.1//EN" "http://www.w3.org/Graphics/SVG/1.1/DTD/svg11.dtd">
<svg version="1.1" id="Layer_1" xmlns="http://www.w3.org/2000/svg" xmlns:xlink="http://www.w3.org/1999/xlink" x="0px" y="0px"
	 width="1024px" height="768px" viewBox="0 0 1024 768" enable-background="new 0 0 1024 768" xml:space="preserve">
<g>
	<path fill="#FED01D" d="M516.027,227.174c1.17,0,1.948,0.388,3.118,0.388c28.853,0,58.093,0,86.943,0c0.782,0,1.95,0,2.731-0.388
		c2.729,0,5.068,0.388,7.796,0.388c29.632,0,59.653,0,89.284,0c2.341,0,5.068,0,7.409-0.388c1.559-1.17,3.116-0.391,5.066,0
		c9.748,0,19.105,0.779,28.854,0c15.983-0.779,25.732,10.526,25.342,24.952c-0.78,21.055,0,42.106,0,63.551
		c0.778,0.78,0.778,1.56,0,2.729c0,1.95,0,3.51,0,5.459c0,49.516,0,99.029,0,148.546c0,17.153-7.797,24.952-24.952,25.344
		c-0.39,0-0.78,0-1.171,0c-1.17,1.17-2.729,1.559-4.287,1.559c-3.12,0-6.239,0-9.358,0c-52.243,0-104.49,0-157.123,0
		c-9.748,0-19.105,0-28.853,0c-18.325,0.388-36.648,0-54.583,0c-3.119,0-6.627,0-9.747,0c-3.51-1.17-7.018,0-10.528,0
		c-30.801,0-61.991,0-92.792,0c-4.29,0-7.409,1.171-10.138,4.287c-14.815,13.647-29.63,27.685-44.836,40.938
		c-3.51,3.122-7.018,7.02-10.917,10.138c-1.17,1.169-2.339,2.341-4.289,1.558c-1.95-0.776-1.95-2.729-1.95-4.286
		c0-15.594,0-30.8,0-46.395c0-5.853,0-6.24-6.239-6.24c-5.458,0-11.306-0.389-16.765,0c-12.867,0.778-24.563-8.191-25.342-24.174
		c0-2.34,0-4.287,0-6.628c0-67.841,0-136.07,0-203.91c0-2.338,0-4.29,0.389-6.628c-0.389-6.238-0.779-12.477,1.949-18.325
		c4.29-8.968,12.087-13.255,21.833-14.036c1.561,0,3.12,0,4.68,0c73.689,0,147.375,0,221.063,0
		C510.959,225.225,513.687,224.445,516.027,227.174z"/>
	<path fill="#FEFEFE" d="M582.308,349.207c-37.429,0-75.248,0-112.676,0c-3.511,0-4.681-0.779-4.681-4.29
		c0-18.324,0-36.649,0-54.972c0-3.12,0.392-4.29,4.29-4.29c75.246,0,150.885,0,226.133,0c3.509,0,4.287,0.779,4.287,4.29
		c0,18.323-0.389,36.648,0,54.972c0,3.9-1.167,4.68-4.677,4.68C657.165,349.207,619.737,349.207,582.308,349.207z"/>
	<path fill="#FEFEFE" d="M582.308,424.845c-37.429,0-75.248,0-112.676,0c-3.511,0-4.681-0.779-4.681-4.679
		c0-18.325,0-37.039,0-55.362c0-2.73,0.782-3.901,3.898-3.901c75.638,0,151.276,0,226.914,0c3.119,0,3.897,0.782,3.897,3.901
		c0,18.714,0,37.037,0,55.75c0,3.512-1.167,4.291-4.287,4.291C657.556,424.453,619.737,424.845,582.308,424.845z"/>
	<path fill="#F66031" d="M307.828,419.388c0-26.513,0-53.416,0-79.928c0-2.728,1.17-3.51,3.51-3.51
		c4.287,0,8.576-0.389,12.866-0.389c1.559-1.949,3.898-1.949,6.239-1.561c3.117,0,4.287-1.168,4.287-4.288
		c0-5.069,0-10.528,0-15.597c0-1.949,0-3.898,2.34-4.678c1.559,1.17,1.559,3.119,1.559,5.069c0,5.068,0,10.525,0,15.594
		c0,3.12,1.17,4.289,4.29,4.289c15.595,0,31.191,0,46.786,0c3.12,0,6.627-0.39,9.747-0.39c4.289,0,8.579-1.559,12.477,1.17
		c3.12,1.169,6.627,0.391,10.136,0.391c2.34,0,3.51,0.391,3.51,3.12c0,26.902,0,53.803,0,80.707
		c-1.559,2.338-4.29,1.558-6.627,1.558c-28.463,0-56.924,0-85.387,0c-6.628,0-12.866,0-19.494,0
		C310.948,420.945,308.999,420.945,307.828,419.388z"/>
	<path fill="#123544" d="M411.147,335.171c-4.288,0.391-8.187,0.391-12.476,0c-1.558-1.559-1.558-3.119-1.558-5.069
		c0-6.237,0-12.866,0-19.103c0-8.579-4.289-15.206-12.087-18.325c-12.087-5.069-24.564-4.678-36.649,0.391
		c-5.459,2.338-8.967,6.627-10.528,12.475c-0.39,1.56-0.39,3.51-1.949,4.29c0,7.407-0.391,14.815-0.391,22.222
		c0,2.73-0.78,3.898-3.508,3.898c-2.729-0.389-5.848-0.389-8.577-0.389c0-8.188,0.389-16.765,0-24.953
		c-0.781-17.544,9.356-28.461,23.392-33.141c15.595-5.068,30.801-4.678,46.008,2.34c12.086,5.848,17.934,15.595,17.934,28.852
		C411.147,317.627,411.147,326.204,411.147,335.171z"/>
	<path fill="#143643" d="M307.828,419.388c38.988,0,77.978,0,116.576,0c0.391,5.457,0.391,5.457-5.069,5.457
		c-35.479,0-70.958,0-106.828,0C307.439,424.845,307.439,424.845,307.828,419.388z"/>
	<path fill="#143645" d="M554.234,394.823c0,3.899-3.117,6.629-7.016,6.629s-7.019-3.118-7.019-7.018
		c0-3.898,3.509-7.019,7.407-7.019C551.117,387.806,554.234,390.925,554.234,394.823z"/>
	<path fill="#143645" d="M572.169,387.416c3.511,0,7.018,3.509,7.018,7.019c0,3.899-3.507,7.018-7.406,6.627
		c-3.898,0-6.626-3.117-6.626-7.018C565.154,390.536,568.271,387.416,572.169,387.416z"/>
	<path fill="#143645" d="M628.313,394.435c0,3.899-2.728,7.018-6.627,7.018c-3.898,0-7.407-3.118-7.407-7.018
		c0-3.51,3.509-7.019,7.018-7.019C625.194,387.416,628.313,390.536,628.313,394.435z"/>
	<path fill="#133645" d="M652.875,394.823c0,3.899-3.117,6.629-7.018,6.629c-3.897,0-7.016-3.118-7.016-6.629
		c0-3.898,3.508-7.407,7.406-7.018C650.146,387.806,653.268,390.925,652.875,394.823z"/>
	<path fill="#133645" d="M589.716,394.435c0-3.898,3.119-7.019,6.627-7.019c3.898,0,7.019,3.12,7.019,7.019
		c0,3.899-3.12,7.018-7.019,6.627C592.445,401.452,589.716,398.723,589.716,394.435z"/>
	<path fill="#133645" d="M529.283,394.823c0,3.899-3.119,6.629-7.018,6.629s-6.63-3.118-6.63-7.018c0-3.898,3.51-7.019,7.019-6.629
		C526.554,387.806,529.283,390.925,529.283,394.823z"/>
	<path fill="#FED01D" d="M336.291,309.83c0-9.747,5.068-15.986,13.645-19.105c11.696-4.29,23.392-4.29,35.09,0
		c9.356,3.507,13.645,10.526,13.645,20.274c0,8.187,0,15.985,0,24.172c-3.51,0-6.627,0.391-10.137,0.391
		c-15.985,0-31.971,0-47.957,0c-3.508,0-4.678-0.779-4.287-4.289C336.679,324.254,336.291,316.848,336.291,309.83z"/>
	<path fill="#FEFBF9" d="M348.766,372.21c3.12-0.779,4.29,0.779,4.29,4.289c0,3.899-1.561,4.288-4.679,4.288
		c-3.51,0-5.068-0.78-4.68-4.678C343.697,372.601,343.697,372.21,348.766,372.21z"/>
	<path fill="#FEFAF9" d="M348.377,355.836c3.899-1.169,4.679,0.78,4.679,4.288c0,3.898-1.561,3.898-4.679,4.289
		c-3.51,0.391-4.68-0.78-4.68-4.679C343.309,355.836,344.867,354.667,348.377,355.836z"/>
	<path fill="#FDFAF9" d="M348.766,388.976c3.51-1.17,3.899,1.17,4.29,4.678c0.389,4.291-1.95,3.9-5.069,4.291
		c-3.898,0.39-5.068-1.172-4.677-4.68C343.697,388.976,343.697,388.976,348.766,388.976z"/>
	<path fill="#FEF9F7" d="M365.531,364.022c-2.729,0.779-4.287,0-4.287-3.898c0-3.508,0.779-4.678,4.678-4.678
		c3.508,0,5.068,0.779,4.678,4.289C370.21,364.022,370.6,364.022,365.531,364.022z"/>
	<path fill="#FEF9F7" d="M383.465,364.022c-3.899,1.17-4.287-0.78-4.678-4.288c-0.391-4.289,1.949-4.289,5.069-4.289
		c3.899-0.391,4.289,1.559,4.289,4.678C388.924,364.022,386.975,364.413,383.465,364.022z"/>
	<path fill="#FEF9F8" d="M383.856,380.787c-3.898,1.17-4.29-0.78-4.678-4.288c-0.391-4.289,1.949-4.289,5.067-4.289
		c3.51,0,4.289,0.779,4.289,4.289C388.534,380.398,387.364,381.958,383.856,380.787z"/>
	<path fill="#FEF9F7" d="M383.856,397.554c-3.51,1.169-4.29-0.781-4.678-4.289c-0.391-4.289,1.559-4.289,5.067-4.289
		c3.9,0,4.289,1.561,4.289,4.678C388.924,397.554,386.975,398.334,383.856,397.554z"/>
	<path fill="#FEFBFA" d="M365.922,380.787c-3.899,1.17-4.29-1.168-4.29-4.288c-0.389-3.898,1.17-4.289,4.68-4.289
		c3.118,0,4.678,0.391,4.678,4.289C370.6,380.398,369.43,381.958,365.922,380.787z"/>
	<path fill="#FEFEFE" d="M365.922,397.554c-4.29,1.169-4.29-1.17-4.29-4.289c-0.389-4.289,1.56-4.289,4.68-4.289
		c3.118,0,4.678,0.39,4.678,4.289C370.6,396.772,369.82,398.723,365.922,397.554z"/>
</g>
</svg>
