<?xml version="1.0" encoding="utf-8"?>
<!-- Generator: Adobe Illustrator 22.0.0, SVG Export Plug-In . SVG Version: 6.00 Build 0)  -->
<svg version="1.1" id="Layer_1" xmlns="http://www.w3.org/2000/svg" xmlns:xlink="http://www.w3.org/1999/xlink" x="0px" y="0px"
	 viewBox="0 0 400 400" style="enable-background:new 0 0 400 400;" xml:space="preserve">
<style type="text/css">
	.st0{fill:#FEFEFE;}
	.st1{fill:#FDFEFD;}
	.st2{fill:#FDFEFE;}
	.st3{fill:#FDFDFD;}
	.st4{fill:#FAFCFD;}
	.st5{fill:#FAFCFC;}
	.st6{fill:#FBFDFD;}
	.st7{fill:#F6FAFB;}
	.st8{fill:#FBFCFC;}
	.st9{fill:#F9FCFC;}
	.st10{fill:#FBFCFD;}
	.st11{fill:#FED01D;}
	.st12{fill:#F66031;}
	.st13{fill:#123544;}
	.st14{fill:#143643;}
	.st15{fill:#143645;}
	.st16{fill:#133645;}
	.st17{fill:#FEFBF9;}
	.st18{fill:#FEFAF9;}
	.st19{fill:#FDFAF9;}
	.st20{fill:#FEF9F7;}
	.st21{fill:#FEF9F8;}
	.st22{fill:#FEFBFA;}
	.st23{fill:#F1D0C2;}
	.st24{fill:#ECBCA8;}
	.st25{fill:#153745;}
</style>
<path class="st0" d="M212.2,324.6c5.5-1.1,10.9-2.4,16.2-4.3c17.8-6.1,33-16.1,45.8-29.9c13.6-14.8,22.6-32.1,26.9-51.8
	c2-9.1,2.8-18.3,2.6-27.6c0-0.6-0.1-1.1-0.1-1.7c0-0.4-0.4-1.1,0.4-1.2c0.8,0,0.5,0.7,0.6,1.1c0.2,2.8,0.2,5.6,0.1,8.4
	c-0.9,26.4-9.7,49.8-26.9,70c-16.5,19.4-37.4,31.9-62.4,37.3c-1.2,0.3-2.4,0.5-3.5,0.7"/>
<path class="st2" d="M92.8,160.7c1.7-3.1,3.5-6.1,5.4-8.9c15-21.9,35.1-37.1,60.5-45c8.8-2.8,17.9-4.3,27.2-4.8
	c29.1-1.4,55,7.1,77.6,25.4c0.2,0.2,0.5,0.4,0.7,0.6c0.2,0.2,0.8,0.4,0.3,0.9c-0.4,0.4-0.6,0-0.9-0.2c-1.7-1.3-3.3-2.6-4.9-3.9
	c-13.4-10-28.3-16.6-44.7-19.9c-8.5-1.7-17.1-2.4-25.7-2.1c-15.7,0.6-30.6,4.2-44.8,11c-12.9,6.2-24.2,14.6-33.8,25.1
	c-5.9,6.4-11.1,13.5-15.3,21.2C94,160.6,93.7,161,92.8,160.7z"/>
<path class="st1" d="M80.2,209c-0.9,24.5,5.1,47,18.5,67.3c4.2,6.3,9,12.2,14.4,17.5c0.2,0.2,0.4,0.4,0.6,0.6c0.3,0.3,0.4,0.5,0,0.8
	c-0.3,0.3-0.5,0.1-0.7-0.1c-1.4-1.4-2.8-2.8-4.1-4.2c-10.6-11.6-18.6-24.8-23.7-39.7c-2.8-8.2-4.7-16.7-5.5-25.4
	c-0.5-5.4-0.6-10.8-0.5-16.3c0-0.2,0-0.3,0-0.5c0.1-0.4-0.2-1.1,0.6-1C80.7,208.2,80.2,208.9,80.2,209z"/>
</svg>
