<?xml version="1.0" encoding="utf-8"?>
<!-- Generator: Adobe Illustrator 22.0.0, SVG Export Plug-In . SVG Version: 6.00 Build 0)  -->
<svg version="1.1" id="Layer_1" xmlns="http://www.w3.org/2000/svg" xmlns:xlink="http://www.w3.org/1999/xlink" x="0px" y="0px"
	 viewBox="0 0 400 400" style="enable-background:new 0 0 400 400;" xml:space="preserve">
<style type="text/css">
	.st0{fill:#FEFEFE;}
	.st1{fill:#FDFEFD;}
	.st2{fill:#FDFEFE;}
	.st3{fill:#FDFDFD;}
	.st4{fill:#FAFCFD;}
	.st5{fill:#FAFCFC;}
	.st6{fill:#FBFDFD;}
	.st7{fill:#F6FAFB;}
	.st8{fill:#FBFCFC;}
	.st9{fill:#F9FCFC;}
	.st10{fill:#FBFCFD;}
	.st11{fill:#FED01D;}
	.st12{fill:#F66031;}
	.st13{fill:#123544;}
	.st14{fill:#143643;}
	.st15{fill:#143645;}
	.st16{fill:#133645;}
	.st17{fill:#FEFBF9;}
	.st18{fill:#FEFAF9;}
	.st19{fill:#FDFAF9;}
	.st20{fill:#FEF9F7;}
	.st21{fill:#FEF9F8;}
	.st22{fill:#FEFBFA;}
	.st23{fill:#F1D0C2;}
	.st24{fill:#ECBCA8;}
	.st25{fill:#153745;}
</style>
<g>
	<path class="st4" d="M183.5,98.2c-0.3,0.1-0.6,0-0.6-0.4c-0.1-0.4,0.2-0.5,0.5-0.5c1.5-0.2,3-0.3,4.5-0.5c0.4,0,0.7,0,0.7,0.5
		c0,0.5-0.3,0.4-0.6,0.5C186.4,97.9,184.9,98.1,183.5,98.2z"/>
	<path class="st5" d="M196.4,97.3c-0.7,0-1.4,0-2.1,0c-0.3,0-0.6-0.1-0.6-0.5c0-0.4,0.3-0.5,0.6-0.5c1.4,0,2.8,0,4.3-0.1
		c0.3,0,0.6,0.1,0.6,0.5c0,0.4-0.2,0.5-0.6,0.5C197.9,97.3,197.2,97.3,196.4,97.3C196.4,97.3,196.4,97.3,196.4,97.3z"/>
	<path class="st5" d="M205.8,96.5c1.2,0.1,2.3,0.2,3.4,0.2c0.3,0,0.7,0,0.6,0.5c0,0.5-0.4,0.5-0.7,0.4c-1.3-0.1-2.7-0.2-4-0.3
		c-0.3,0-0.7,0-0.7-0.5c0-0.5,0.4-0.5,0.8-0.5C205.5,96.5,205.8,96.5,205.8,96.5z"/>
	<path class="st6" d="M320,209.3c0,0.3,0.2,0.8-0.5,0.8c-0.6,0-0.4-0.5-0.5-0.8c-0.1-1.3-0.3-2.5-0.4-3.8c0-0.3-0.2-0.8,0.4-0.8
		c0.6-0.1,0.6,0.4,0.6,0.8C319.7,206.7,319.8,208,320,209.3z"/>
	<path class="st7" d="M319.2,218c0-0.7,0-1.5,0-2.2c0-0.3,0-0.5,0.4-0.5c0.4,0,0.5,0.2,0.5,0.5c0,1.5,0,2.9,0,4.4
		c0,0.3-0.1,0.5-0.5,0.5c-0.4,0-0.5-0.2-0.5-0.6C319.2,219.4,319.2,218.7,319.2,218C319.2,218,319.2,218,319.2,218z"/>
	<path class="st5" d="M319.9,226.8c-0.1,1.3-0.2,2.6-0.3,3.9c0,0.3,0,0.8-0.6,0.7c-0.6-0.1-0.4-0.5-0.4-0.8c0.1-1.3,0.2-2.6,0.4-3.9
		c0-0.3,0-0.7,0.5-0.7C320,226.1,320,226.5,319.9,226.8z"/>
	<path class="st5" d="M96.2,154.2c-0.3-0.2-0.8-0.2-0.5-0.8c0.8-1.3,1.7-2.6,2.5-3.8c0.2-0.2,0.3-0.3,0.6-0.1
		c0.2,0.1,0.5,0.3,0.3,0.5c-0.9,1.4-1.8,2.7-2.7,4.1C96.4,154.2,96.3,154.2,96.2,154.2z"/>
	<path class="st5" d="M105.3,293.8c0,0.3-0.2,0.4-0.4,0.5c-0.2,0.2-0.4,0-0.5-0.2c-0.9-1.2-1.9-2.4-2.8-3.6c-0.2-0.3,0-0.5,0.2-0.6
		c0.2-0.2,0.4-0.2,0.6,0c1,1.2,1.9,2.5,2.9,3.7C105.2,293.7,105.3,293.8,105.3,293.8z"/>
	<path class="st5" d="M98.9,285.3c0,0.3-0.3,0.4-0.5,0.5c-0.2,0.2-0.4,0-0.5-0.2c-0.8-1.3-1.6-2.5-2.4-3.8c-0.2-0.3-0.1-0.5,0.2-0.7
		c0.3-0.2,0.5-0.1,0.6,0.2c0.8,1.3,1.6,2.5,2.4,3.8C98.8,285.1,98.9,285.2,98.9,285.3z"/>
	<path class="st5" d="M264.7,319.7c-0.2,0-0.3-0.2-0.4-0.4c-0.1-0.2-0.1-0.4,0.1-0.5c1.3-0.9,2.6-1.8,3.9-2.6c0.3-0.2,0.4,0,0.6,0.2
		c0.1,0.2,0.2,0.4,0,0.5C267.5,317.9,266.1,318.8,264.7,319.7C264.8,319.7,264.7,319.7,264.7,319.7z"/>
	<path class="st5" d="M112.8,133.3c-0.1,0.1-0.2,0.3-0.3,0.4c-1,1-1.9,2.1-2.9,3.1c-0.2,0.3-0.4,0.5-0.8,0.1c-0.3-0.3-0.2-0.5,0-0.7
		c1-1.1,2-2.1,3-3.2c0.1-0.2,0.3-0.4,0.6-0.2C112.5,133,112.6,133.2,112.8,133.3z"/>
	<path class="st5" d="M306.9,164.5c0-0.2,0-0.4,0-0.7c0.4-0.2,0.7-0.3,0.9,0.3c0.6,1.3,1.2,2.6,1.8,3.9c0.2,0.3,0.2,0.5-0.2,0.7
		c-0.4,0.2-0.5,0-0.7-0.3C308.1,167.1,307.5,165.8,306.9,164.5z"/>
	<path class="st5" d="M88.5,266.5c0.1,0.3-0.1,0.4-0.3,0.5c-0.2,0.1-0.5,0.1-0.6-0.1c-0.6-1.4-1.2-2.9-1.8-4.3
		c-0.1-0.3,0-0.4,0.3-0.5c0.2-0.1,0.4-0.2,0.5,0C87.3,263.5,87.9,265,88.5,266.5z"/>
	<path class="st4" d="M309.4,267.9c-0.1,0.3-0.3,0.6-0.4,0.9c-0.5,1.1-1,2.1-1.5,3.1c-0.2,0.3-0.3,0.5-0.7,0.3
		c-0.4-0.2-0.3-0.4-0.2-0.7c0.6-1.3,1.2-2.6,1.9-3.9c0.1-0.2,0.2-0.5,0.6-0.4C309.2,267.4,309.5,267.5,309.4,267.9z"/>
	<path class="st4" d="M93.3,276.2c0,0.2-0.2,0.3-0.4,0.4c-0.2,0.1-0.4,0.1-0.5-0.1c-0.7-1.4-1.5-2.7-2.2-4.1c-0.2-0.3,0-0.5,0.3-0.6
		c0.2-0.1,0.4-0.1,0.6,0.2c0.7,1.4,1.4,2.7,2.2,4.1C93.3,276.1,93.3,276.1,93.3,276.2z"/>
	<path class="st4" d="M301.8,281.8c-0.3-0.2-0.8-0.3-0.5-0.8c0.8-1.3,1.5-2.6,2.3-3.8c0.2-0.3,0.3-0.4,0.6-0.2
		c0.3,0.2,0.4,0.4,0.2,0.7c-0.8,1.3-1.5,2.6-2.3,3.8C302.1,281.6,301.9,281.7,301.8,281.8z"/>
	<path class="st5" d="M316.9,241.5c0.3-1.5,0.6-3,0.8-4.4c0.1-0.4,0.3-0.5,0.6-0.4c0.4,0.1,0.4,0.3,0.3,0.6
		c-0.3,1.4-0.5,2.9-0.8,4.3c0,0.2-0.1,0.6-0.5,0.5C317.1,242,316.8,241.8,316.9,241.5z"/>
	<path class="st4" d="M93.5,159.1c0,0.1-0.1,0.2-0.2,0.3c-0.7,1.2-1.3,2.5-2,3.7c-0.2,0.3-0.3,0.5-0.7,0.3c-0.4-0.2-0.3-0.4-0.2-0.7
		c0.7-1.3,1.3-2.5,2-3.8c0.1-0.2,0.3-0.5,0.6-0.3C93.3,158.7,93.6,158.7,93.5,159.1z"/>
	<path class="st5" d="M292.5,295c-0.1,0.1-0.2,0.2-0.3,0.4c-0.9,1.1-1.8,2.1-2.7,3.2c-0.2,0.2-0.4,0.6-0.8,0.2
		c-0.4-0.4-0.1-0.6,0.1-0.9c0.9-1,1.8-2.1,2.7-3.1c0.1-0.2,0.2-0.5,0.5-0.3C292.2,294.5,292.4,294.7,292.5,295z"/>
	<path class="st5" d="M255.8,325.1c-0.5,0.1-0.5-0.1-0.6-0.2c-0.1-0.2-0.2-0.4,0.1-0.6c1.4-0.8,2.7-1.5,4.1-2.3
		c0.2-0.1,0.4,0,0.5,0.2c0.1,0.2,0.3,0.4,0,0.6C258.4,323.6,257,324.4,255.8,325.1z"/>
	<path class="st6" d="M215.9,97.5c1.4,0.2,2.8,0.4,4.1,0.7c0.3,0,0.5,0.1,0.5,0.5c-0.1,0.3-0.2,0.5-0.6,0.5
		c-1.4-0.2-2.9-0.4-4.3-0.7c-0.3,0-0.5-0.2-0.4-0.5C215.2,97.4,215.5,97.5,215.9,97.5z"/>
	<path class="st5" d="M246,329.7c-0.5,0.1-0.5-0.2-0.6-0.3c-0.1-0.2-0.1-0.5,0.2-0.6c1.4-0.6,2.8-1.2,4.2-1.9c0.3-0.1,0.5,0,0.6,0.2
		c0.1,0.2,0.3,0.4,0,0.5C248.9,328.4,247.4,329.1,246,329.7z"/>
	<path class="st5" d="M313.6,178.1c0.1,0.5-0.2,0.5-0.4,0.6c-0.3,0.1-0.4,0-0.5-0.3c-0.5-1.4-1-2.9-1.6-4.3c-0.1-0.3,0-0.4,0.2-0.5
		c0.2-0.1,0.5-0.2,0.6,0.1C312.5,175.2,313.1,176.7,313.6,178.1z"/>
	<path class="st5" d="M295.8,290.7c-0.3-0.2-0.8-0.3-0.5-0.8c0.9-1.2,1.8-2.5,2.7-3.7c0.2-0.3,0.4-0.2,0.7,0
		c0.2,0.2,0.3,0.3,0.1,0.6c-0.9,1.3-1.8,2.5-2.7,3.8C296,290.5,295.9,290.6,295.8,290.7z"/>
	<path class="st5" d="M81.7,189.3c-0.3,1.1-0.6,2.5-0.9,3.9c-0.1,0.4-0.2,0.5-0.6,0.5c-0.4-0.1-0.4-0.3-0.4-0.7
		c0.3-1.4,0.6-2.8,0.9-4.2c0.1-0.3,0.1-0.6,0.6-0.5C81.7,188.5,81.9,188.7,81.7,189.3z"/>
	<path class="st5" d="M311.4,262.6c-0.3-0.1-0.7-0.1-0.5-0.7c0.5-1.4,1.1-2.8,1.6-4.3c0.1-0.3,0.2-0.4,0.5-0.2
		c0.3,0.1,0.5,0.3,0.4,0.6c-0.5,1.5-1.1,2.9-1.6,4.4C311.7,262.5,311.6,262.6,311.4,262.6z"/>
	<path class="st8" d="M281.5,306.6c-0.2,0-0.3-0.2-0.5-0.4c-0.2-0.2-0.1-0.4,0.1-0.5c1.1-1.1,2.2-2.1,3.3-3.2
		c0.3-0.3,0.5-0.1,0.7,0.1c0.3,0.2,0.2,0.4,0,0.7c-1.1,1.1-2.2,2.1-3.3,3.2C281.7,306.5,281.6,306.5,281.5,306.6z"/>
	<path class="st6" d="M116.2,305.5c0.3,0.2,0.4,0.4,0.6,0.5c1,0.9,2,1.8,2.9,2.7c0.2,0.2,0.7,0.4,0.2,0.8c-0.3,0.4-0.6,0.1-0.8-0.1
		c-1-0.9-2.1-1.9-3.1-2.8c-0.1-0.1-0.4-0.3-0.2-0.6C115.9,305.9,116,305.7,116.2,305.5z"/>
	<path class="st8" d="M276.9,309.6c0.3,0.1,0.4,0.3,0.5,0.4c0.2,0.2,0,0.4-0.2,0.5c-1.2,0.9-2.3,1.9-3.5,2.8
		c-0.3,0.3-0.5,0.2-0.7-0.1c-0.2-0.2-0.2-0.4,0.1-0.6c1.2-1,2.4-1.9,3.5-2.9C276.7,309.7,276.8,309.6,276.9,309.6z"/>
	<path class="st5" d="M128.5,315.8c-0.2,0.2-0.2,0.8-0.7,0.5c-1.3-0.9-2.5-1.9-3.8-2.8c-0.3-0.2-0.2-0.4,0-0.7
		c0.2-0.2,0.3-0.3,0.6-0.1c1.2,0.9,2.5,1.9,3.7,2.8C128.4,315.6,128.5,315.7,128.5,315.8z"/>
	<path class="st4" d="M317,194.6c-0.1-0.3,0-0.5,0.3-0.5c0.3,0,0.5,0,0.6,0.3c0.3,1.5,0.5,3,0.8,4.5c0.1,0.3-0.2,0.5-0.5,0.5
		c-0.3,0-0.5,0-0.5-0.3C317.6,197.6,317.3,196.1,317,194.6z"/>
	<path class="st9" d="M226.1,99.4c1.6,0.4,3,0.8,4.5,1.1c0.3,0.1,0.5,0.2,0.4,0.6c-0.1,0.4-0.3,0.5-0.7,0.4
		c-1.4-0.4-2.8-0.7-4.2-1.1c-0.3-0.1-0.6-0.1-0.5-0.6C225.7,99.4,225.9,99.3,226.1,99.4z"/>
	<path class="st5" d="M102.3,145.4c-0.3-0.2-0.8-0.4-0.4-0.8c0.9-1.2,1.9-2.4,2.8-3.6c0.2-0.2,0.4-0.3,0.6-0.1
		c0.2,0.2,0.5,0.3,0.2,0.6c-1,1.2-1.9,2.5-2.9,3.7C102.5,145.3,102.4,145.4,102.3,145.4z"/>
	<path class="st5" d="M88.8,168.5c-0.1,0.1-0.1,0.3-0.2,0.4c-0.5,1.3-1.1,2.6-1.6,3.9c-0.1,0.3-0.2,0.6-0.6,0.4
		c-0.4-0.2-0.4-0.4-0.3-0.7c0.6-1.3,1.1-2.7,1.7-4c0.1-0.2,0.2-0.4,0.5-0.3C88.5,168.2,88.7,168.3,88.8,168.5z"/>
	<path class="st9" d="M316.6,247.6c-0.5,1.6-0.9,3.1-1.3,4.5c-0.1,0.3-0.2,0.5-0.6,0.4c-0.4-0.1-0.5-0.3-0.3-0.7
		c0.4-1.4,0.8-2.8,1.2-4.2c0.1-0.3,0.2-0.5,0.5-0.4C316.4,247.2,316.7,247.4,316.6,247.6z"/>
	<path class="st4" d="M229.9,334.2c0.3-0.1,0.4,0.2,0.5,0.4c0.1,0.2,0.1,0.5-0.2,0.5c-1.5,0.4-3,0.8-4.5,1.1
		c-0.3,0.1-0.4-0.2-0.5-0.4c-0.1-0.2-0.1-0.5,0.2-0.5C226.8,334.9,228.3,334.6,229.9,334.2z"/>
	<path class="st5" d="M109.1,298c0,0,0.1,0.2,0.2,0.4c0.9,1,1.8,2,2.8,3c0.2,0.3,0.4,0.5,0.1,0.8c-0.4,0.4-0.5,0.1-0.8-0.1
		c-1-1.1-1.9-2.1-2.9-3.1c-0.2-0.2-0.3-0.3-0.1-0.6C108.5,298.2,108.6,298,109.1,298z"/>
	<path class="st5" d="M236.5,102.3c0.7,0.3,1.5,0.5,2.3,0.8c0.4,0.1,0.9,0.2,1.2,0.4c0.4,0.3,1.4,0,1.1,0.9c-0.3,0.8-0.9,0.1-1.3,0
		c-1.1-0.3-2.3-0.8-3.4-1.2c-0.3-0.1-0.5-0.2-0.4-0.6C236,102.4,236.1,102.3,236.5,102.3z"/>
	<path class="st6" d="M236,333.4c-0.5,0.1-0.6-0.1-0.6-0.3c-0.1-0.2-0.1-0.5,0.2-0.6c1.5-0.5,2.9-1,4.4-1.5c0.3-0.1,0.4,0.1,0.4,0.3
		c0.1,0.2,0.2,0.5-0.1,0.6C238.9,332.4,237.3,332.9,236,333.4z"/>
	<path class="st10" d="M119.9,125.5c0.2,0,0.4,0.2,0.5,0.3c0.2,0.2,0.1,0.4,0,0.5c-1.2,1-2.3,2.1-3.5,3.1c-0.2,0.2-0.4,0.1-0.6-0.1
		c-0.2-0.2-0.3-0.3-0.1-0.5c1.2-1.1,2.4-2.1,3.5-3.2C119.7,125.5,119.8,125.5,119.9,125.5z"/>
	<path class="st6" d="M84.8,178.7c-0.1,0.3-0.2,0.7-0.4,1.1c-0.3,1-0.7,2-1,3c-0.1,0.4-0.3,0.6-0.7,0.4c-0.4-0.1-0.3-0.4-0.2-0.7
		c0.4-1.3,0.8-2.6,1.3-4c0.1-0.3,0.2-0.6,0.6-0.5C84.6,178.2,84.8,178.3,84.8,178.7z"/>
	<path class="st5" d="M82.8,251.8c0.5-0.1,0.5,0.2,0.6,0.5c0.4,1.3,0.8,2.7,1.3,4c0.1,0.3,0.2,0.6-0.2,0.7c-0.4,0.2-0.6,0-0.7-0.4
		c-0.4-1.3-0.9-2.6-1.3-4C82.3,252.2,82.3,251.9,82.8,251.8z"/>
	<path class="st5" d="M316.7,188.4c0,0.4-0.2,0.5-0.5,0.6c-0.3,0.1-0.4-0.1-0.5-0.3c-0.4-1.4-0.8-2.9-1.2-4.3
		c-0.1-0.3,0-0.5,0.3-0.6c0.3-0.1,0.5,0,0.6,0.3C315.8,185.4,316.2,186.9,316.7,188.4z"/>
	<path class="st5" d="M293,141.1c-0.4,0.1-0.8,0.1-1.3,0c-0.8-1-1.6-1.9-2.4-2.9c-0.2-0.2-0.6-0.5-0.2-0.9c0.4-0.4,0.6-0.1,0.9,0.2
		C291,138.7,292,139.9,293,141.1z"/>
	<path class="st5" d="M173.2,100c-0.3,0.1-0.4,0-0.5-0.3c0-0.3-0.1-0.5,0.3-0.6c1.3-0.3,2.7-0.5,4-0.8c0.2,0,0.4,0,0.5,0.3
		c0.1,0.4-0.1,0.6-0.4,0.6C175.8,99.5,174.5,99.7,173.2,100z"/>
</g>
</svg>
