<?xml version="1.0" encoding="utf-8"?>
<!-- Generator: Adobe Illustrator 22.0.0, SVG Export Plug-In . SVG Version: 6.00 Build 0)  -->
<svg version="1.1" id="Layer_1" xmlns="http://www.w3.org/2000/svg" xmlns:xlink="http://www.w3.org/1999/xlink" x="0px" y="0px"
	 viewBox="0 0 400 400" style="enable-background:new 0 0 400 400;" xml:space="preserve">
<style type="text/css">
	.st0{fill:#FEFEFE;}
	.st1{fill:#FDFEFD;}
	.st2{fill:#FDFEFE;}
	.st3{fill:#FDFDFD;}
	.st4{fill:#FAFCFD;}
	.st5{fill:#FAFCFC;}
	.st6{fill:#FBFDFD;}
	.st7{fill:#F6FAFB;}
	.st8{fill:#FBFCFC;}
	.st9{fill:#F9FCFC;}
	.st10{fill:#FBFCFD;}
	.st11{fill:#FED01D;}
	.st12{fill:#F66031;}
	.st13{fill:#123544;}
	.st14{fill:#143643;}
	.st15{fill:#143645;}
	.st16{fill:#133645;}
	.st17{fill:#FEFBF9;}
	.st18{fill:#FEFAF9;}
	.st19{fill:#FDFAF9;}
	.st20{fill:#FEF9F7;}
	.st21{fill:#FEF9F8;}
	.st22{fill:#FEFBFA;}
	.st23{fill:#F1D0C2;}
	.st24{fill:#ECBCA8;}
	.st25{fill:#153745;}
</style>
<path class="st0" d="M109.6,314.6c-8.6-5.7-16.5-12.3-23.6-19.8c-9.9-10.4-18-22.1-24.2-35c0-0.1-0.1-0.2-0.1-0.3
	c-0.3-0.5-0.1-0.8,0.3-1c0.5-0.3,0.5,0.3,0.6,0.5c1.7,3.6,3.6,7.1,5.6,10.6c5.1,8.6,11.1,16.5,17.9,23.8c7,7.4,14.7,13.9,23.1,19.6"
	/>
<path class="st1" d="M48.4,203.5c0-37.5,12.2-70.2,38.4-97c30.2-30.9,67.3-44,110.5-41.1c-0.4,1.1-1.1,1.2-1.8,1.1
	c-4.1-0.4-8.2-0.5-12.3-0.4c-19.3,0.1-37.8,4.3-55.3,12.3c-13.3,6.1-25.2,14.2-35.9,24.2c-19.2,18.1-32,40-38.4,65.6
	c-2,8.1-3.3,16.3-3.7,24.6c-0.2,2.9-0.2,5.9-0.2,8.8C49.6,202.6,49.2,203,48.4,203.5z"/>
<path class="st1" d="M207.5,335c0-0.3,0-0.7,0-1c3.1-0.7,6.3-1.3,9.4-2c20.9-5.2,39.5-14.8,55.7-28.8c16.6-14.4,29-31.7,37.2-52.1
	c4.1-10.2,6.8-20.9,8.3-31.8c1.1-8.2,1.4-16.4,1.1-24.6c-0.1-3.2-0.5-6.4-0.8-9.7c-0.1-0.8,0.1-1.2,0.9-1.6c0.2,1.5,0.4,2.9,0.5,4.3
	c0.7,7.4,0.8,14.9,0.3,22.4c-0.7,9.8-2.3,19.4-5,28.8c-4.8,16.7-12.6,31.9-23.3,45.6c-12.2,15.6-27.1,28.1-44.7,37.3
	c-12.3,6.4-25.3,10.8-38.9,13.2C208,335,207.7,335,207.5,335z"/>
<path class="st3" d="M301.6,132c0,0.4-0.2,0.5-0.4,0.7c-0.4,0.2-0.5-0.2-0.6-0.4c-1.8-3.1-3.8-6.1-5.9-9
	C283.2,107,268.9,93.9,251.8,84c-0.3-0.2-0.9-0.2-0.7-0.7c0.3-0.6,0.7-0.5,1.2-0.2c20.4,11.9,36.7,28,48.9,48.2
	C301.4,131.6,301.5,131.8,301.6,132z"/>
</svg>
