<?xml version="1.0" encoding="utf-8"?>
<!-- Generator: Adobe Illustrator 22.0.0, SVG Export Plug-In . SVG Version: 6.00 Build 0)  -->
<svg version="1.1" id="Layer_1" xmlns="http://www.w3.org/2000/svg" xmlns:xlink="http://www.w3.org/1999/xlink" x="0px" y="0px"
	 viewBox="0 0 400 400" style="enable-background:new 0 0 400 400;" xml:space="preserve">
<style type="text/css">
	.st0{fill:#123544;}
	.st1{fill:#FEFEFE;}
	.st2{fill:#143645;}
	.st3{fill:#F1D0C2;}
	.st4{fill:#ECBCA8;}
	.st5{fill:#153745;}
</style>
<g>
	<path class="st0" d="M237.3,334.1c0,0.4,0,0.9,0,1.3c0,21.1,0,42.3,0,63.4c0,0.4,0,0.9,0,1.3c-34.3,0-68.5,0-102.8,0
		c0-0.4,0-0.7,0-1.1c0-25.9,0-51.7,0-77.6c0-1.4,0-1.4,1.4-1.4c31.4,0,62.8,0,94.3,0.1c2.1,0,4.1,0,6.2-0.1c0.8,0,1,0.2,1,1
		c0,4,0,8.1,0,12.1C237.6,333.5,237.6,333.8,237.3,334.1z"/>
	<path class="st1" d="M233.4,309.1c0.1-1.8,0-3.5,0-5.3c0-1.3,0-1.3-1.4-1.3c-4,0-8,0-12,0c-0.4,0-0.7,0-1.1,0
		c-18.7,0-37.5,0-56.2,0c-0.4,0-0.7,0-1.1,0c-3.5,0-7.1,0-10.6,0l-3.8,0c-2.2,0-4.2,0-6.3,0c-0.8,0-1,0.2-1,1c0,2.7,0,5.5,0,8.2"/>
	<path class="st1" d="M233.4,308.1c0,2,0,8.1,0,10.1c0,0.3-0.1,0.7,0.4,0.7c0.3,0,0.3,0.3,0.3,0.6c0,0.3-0.3,0.3-0.5,0.3
		c-0.4,0-0.8,0.1-1.2,0.1c-30.4,0-60.8,0-91.2,0c-1,0-1.3-0.3-1.2-1.2c0.1-1.3,0-7.5,0-8.8"/>
	<polygon class="st2" points="255.4,123.6 255.4,206.8 251.6,208.5 251.8,124.2 	"/>
	<path class="st0" d="M189.9,131.5c-0.4,0.5-1,0.4-1.5,0.4c-3.2,0-6.3,0-9.5,0c-1.5,0-1.6,0.1-1.6,1.6c0,10.8,0,21.6,0,32.4
		c0,24.7,0,49.4,0,74.1c0,0.7,0.2,1.5-0.4,2.1c-1-0.1-2-0.1-3,0c-0.5,0.1-0.8-0.1-0.8-0.7c0-0.3,0-0.5,0-0.8c0-17.7,0-35.5,0-53.2
		c0-0.4,0-0.7,0-1.1c0-0.4,0-0.9,0-1.3c0-21.9,0-43.7,0-65.6c0-3.2,1.9-5.1,5.1-5.1c24.1,0,48.1,0,72.2,0c3.1,0,5.1,1.9,5.1,5
		c0,1.4,0,10.7,0,12.1"/>
	<path class="st3" d="M158.1,186.5c0.1,0.3,0.3,0.4,0.6,0.4c0.8,0.1,1.5,0.3,2.2,0.6c1.7,0.6,2.2,1.3,2.2,3.1c0,1.9,0,3.9,0,5.8
		c0,0.9-0.2,1.3-1.1,1.4c-1.2,0.1-2.4,0.5-3.6,0.5c-0.8,0-1.1,0.4-1.2,1.1c0.1-2.1,0.2-4.2,0.4-6.3c0.2-1.9,0.3-3.8,0.4-5.7
		C157.9,187,157.9,186.7,158.1,186.5z"/>
	<path class="st1" d="M250.9,257.6h-73.5c-0.5,0-0.8-0.4-0.8-0.8V132c0-0.5,0.4-0.8,0.8-0.8h73.5c0.5,0,0.8,0.4,0.8,0.8v124.8
		C251.8,257.2,251.4,257.6,250.9,257.6z"/>
	<path class="st4" d="M251.6,208.5c-2.1,1-4.3,1.9-6.4,3c-3.9,2.1-7.5,0.5-9.4-1.8c-2.8-3.4-3-7.6-0.5-10.7c0.6-0.8,1.4-1.3,2.3-1.7
		c2.6-1.2,5.3-2.5,7.9-3.8c0.4-0.2,1-0.6,1-0.6s6.4-2.6,9.2-2.5c6.4,0.3,7.4,2.5,7.4,2.5c1.5,2.7,1.8,5.4,0.4,8.3
		c-0.6,1.3-1.6,2.2-2.9,2.9c-1.8,0.9-3.7,1.6-5.4,2.6C254.4,207.8,253.1,208.3,251.6,208.5z"/>
	<path class="st0" d="M198.7,256.8c10,0,20,0,30,0c7.4,0,14.7,0,22.1,0c0.6,0,0.9-0.1,0.9-0.8c0-5.1,0-10.3,0-15.4
		c0-0.2,0.1-0.3,0.2-0.4c1-0.5,2-0.8,3.1-0.8c0.2,0,0.4,0.1,0.5,0.3c0,8.5,0,17,0,25.5c0,2.7-1.5,4.5-4.2,5c-2.2,0-4.3,0-6.5,0
		c-13.7,0-27.4,0-41.1,0c-0.9,0-1.5,0.2-1.5-1.3c0-3.3-0.9-6.6-2.3-9.6C199.4,258.3,199.1,257.5,198.7,256.8z"/>
	<path class="st4" d="M255.4,239.5c-1.3,0.1-2.6,0.5-3.8,1c-2,0.3-4,1-6,1.5c-2.8,0.7-5.5-0.2-7.1-2.4c-1.7-2.4-1.8-5.5-0.1-7.8
		c0.8-1.2,2-2.1,3.4-2.4c3.3-0.9,6.6-1.7,9.8-2.6c1.1-0.9,2.3-1.3,3.7-1c1.7-0.4,3.4-1,5.2-0.6c2.7,0.6,5,3.3,5,6.2
		c0.1,3.2-1.8,5.8-4.7,6.6C259.1,238.5,257.2,238.8,255.4,239.5z"/>
	<path class="st4" d="M251.2,270c-1.4,0.3-2.9,0.1-4.4,0.1c-0.9,0-1.4,0.3-1.9,1c-2.1,2.5-4.2,5-6.2,7.6c-2.9,3.7-6.7,6.1-11,7.6
		c-2.4,0.8-4.7,1.7-7.1,2.3c-0.7,0.2-0.9,0.6-0.9,1.3c0.2,3.5,0.3,7.1,0.4,10.6c0,0.7,0,1.4,0,2.1c-0.2,0.4-0.5,0.5-0.9,0.5
		c-0.3,0-0.7,0-1,0c-18.2,0-36.4,0-54.5,0c-0.7,0-1.4,0.2-1.9-0.5c-0.2-5.7-0.3-11.4-0.5-17.1c-0.1-7.5-0.1-15-0.2-22.5
		c0-1.3-1-2.5-1.5-3.6c-1.3-2.7-2.6-5.5-4.1-8.1c-0.9-1.7-1.5-3.5-1.7-5.5c-0.8-6.5-0.9-13,0.8-19.3c1.1-4.1,1.2-8.2,1.5-12.3
		c0.3-4.4,0.6-8.8,1-13.2c0-0.5,0-1,0.1-1.5c0.2-1.3,0.2-1.3,1.5-1.5c1.1-0.2,2.1-0.2,3.2-0.5c0.6-0.1,0.9-0.4,0.9-1.1
		c0-2.1,0-4.3,0-6.4c0-0.6-0.3-1-0.8-1.4c-0.9-0.7-2-0.9-3.1-1.2c-0.4-0.1-0.9-0.1-0.7-0.8c3.9-5.1,10.8-5.2,15-0.2
		c0.4,0.3,0.4,0.7,0.4,1.1c0,0.5,0,1,0,1.5c0,16.7,0,33.3,0,50c0,0.3,0,0.7,0,1c0,1.7,0,1.7,1.6,1.7c0.5,0,1-0.1,1.5,0.2
		c4,0.1,7.8,1.1,11.2,3.3c4.4,2.9,8,6.5,10.8,11c0.2,0.3,0.3,0.6,0.4,0.9c1.4,2,2.1,4.3,2.8,6.7c0.5,1.6,0.6,3.3,0.8,5
		c0.1,0.7,0.4,1,1.1,1c0.4,0,0.7,0,1.1,0c14.9,0,29.7,0,44.6,0C250,269.5,250.7,269.3,251.2,270z"/>
	<path class="st4" d="M251.7,224.9c-2.3,0.5-4.6,1.1-7,1.6c-3.9,0.8-7.6-2.2-7.8-6.2c-0.2-4,1.6-6.3,5.4-7.3
		c3.1-0.8,6.3-1.5,9.4-2.3c1.1-0.9,2.4-1.2,3.8-1c0.7-0.1,1.5-0.3,2.2-0.4c3.6-0.8,7.4,2.5,7.6,6.2c0.2,4-1.5,6.3-5.4,7.3
		c-1.5,0.4-3,0.7-4.4,1.1C254.3,224.9,253,225,251.7,224.9z"/>
	<path class="st2" d="M255.4,209.7c-1.3,0.3-2.5,0.7-3.8,1c0-0.7,0-1.5,0-2.2c1.2-0.7,2.5-1.3,3.8-1.8
		C255.4,207.8,255.4,208.7,255.4,209.7z"/>
	<path class="st5" d="M251.7,224.9c1.2-0.5,2.5-0.7,3.8-1c0,0.6,0,1.2,0,1.8c-1.2,0.3-2.5,0.7-3.7,1
		C251.7,226.1,251.7,225.5,251.7,224.9z"/>
	<path class="st0" d="M211.5,311c0-2.4,2-4.3,4.3-4.3c2.3,0,4.2,2,4.2,4.3c0,2.4-2,4.3-4.4,4.3C213.4,315.3,211.5,313.4,211.5,311z"
		/>
	<path class="st3" d="M236.5,202.1c-0.2-0.9,0.2-1.4,1-1.8c1.1-0.5,2.2-1.1,3.3-1.7c0.5-0.3,0.9-0.3,1.3,0.3c1.7,2.4,3.2,4.9,4,7.8
		c0.2,0.7,0.1,0.9-0.5,1.2c-1.2,0.5-2.4,1.1-3.6,1.8c-0.7,0.4-1.3,0.3-1.8-0.2C237.9,207.5,236.6,205,236.5,202.1z"/>
	<path class="st3" d="M247.5,238.7c0.1,0.4-0.2,0.7-1,0.9c-1.1,0.3-2.3,0.6-3.4,1c-0.6,0.2-0.9,0.1-1.3-0.3
		c-1.9-2.2-2.4-4.7-2.1-7.5c0.1-0.5,0.3-0.8,0.9-1c1.3-0.3,2.6-0.7,3.8-1.1c0.4-0.1,0.7,0,0.9,0.4
		C246.3,233.4,247.3,235.7,247.5,238.7z"/>
	<path class="st3" d="M248.5,223c0.1,0.4-0.1,0.6-0.7,0.8c-1.5,0.4-3.1,0.9-4.6,1.3c-0.4,0.1-0.6,0-0.9-0.2c-2.4-2.3-3-5.2-2.5-8.4
		c0.1-0.4,0.2-0.6,0.7-0.8c1.5-0.4,3-0.8,4.5-1.3c0.5-0.1,0.8-0.2,1.1,0.4c1.2,2.4,2,5,2.4,7.7C248.5,222.6,248.5,222.8,248.5,223z"
		/>
</g>
</svg>
